<svg width="179" height="160" viewBox="0 0 179 160" fill="none" xmlns="http://www.w3.org/2000/svg">
<g clip-path="url(#clip0_1826_467427)">
<path d="M178.47 157.651L50.7127 159.621L0 150.429H79.1694L178.47 157.651Z" fill="#E6E6E6"/>
<path d="M147.119 42.5299C158.406 42.5299 167.556 33.1721 167.556 21.6286C167.556 10.0851 158.406 0.727295 147.119 0.727295C135.832 0.727295 126.682 10.0851 126.682 21.6286C126.682 33.1721 135.832 42.5299 147.119 42.5299Z" fill="#FE662E"/>
<path d="M36.1536 151.521C36.1536 151.521 36.4525 145.115 42.5808 145.86Z" fill="white"/>
<path d="M34.4219 145.425C36.1158 145.425 37.489 144.021 37.489 142.288C37.489 140.556 36.1158 139.151 34.4219 139.151C32.7279 139.151 31.3547 140.556 31.3547 142.288C31.3547 144.021 32.7279 145.425 34.4219 145.425Z" fill="#FE662E"/>
<path d="M34.7886 147.57H33.9229V153.769H34.7886V147.57Z" fill="white"/>
<path d="M137.161 152.616C137.161 152.616 137.46 146.209 143.588 146.954Z" fill="white"/>
<path d="M135.429 146.519C137.123 146.519 138.496 145.115 138.496 143.382C138.496 141.65 137.123 140.246 135.429 140.246C133.735 140.246 132.362 141.65 132.362 143.382C132.362 145.115 133.735 146.519 135.429 146.519Z" fill="#FE4400"/>
<path d="M135.796 148.665H134.93V154.863H135.796V148.665Z" fill="white"/>
<path d="M151.927 153.71C151.927 153.71 152.225 147.304 158.354 148.048Z" fill="white"/>
<path d="M150.195 147.614C151.889 147.614 153.262 146.209 153.262 144.477C153.262 142.744 151.889 141.34 150.195 141.34C148.501 141.34 147.128 142.744 147.128 144.477C147.128 146.209 148.501 147.614 150.195 147.614Z" fill="#FE885C"/>
<path d="M150.562 149.759H149.696V155.957H150.562V149.759Z" fill="white"/>
<path d="M60.3352 148.457C60.3352 148.457 60.6341 142.051 66.7624 142.796Z" fill="white"/>
<path d="M58.6038 142.361C60.2977 142.361 61.6709 140.957 61.6709 139.224C61.6709 137.492 60.2977 136.087 58.6038 136.087C56.9098 136.087 55.5366 137.492 55.5366 139.224C55.5366 140.957 56.9098 142.361 58.6038 142.361Z" fill="#FE662E"/>
<path d="M58.9705 144.506H58.1047V150.705H58.9705V144.506Z" fill="white"/>
<path d="M14.7537 149.552C14.7537 149.552 15.0526 143.145 21.1809 143.89Z" fill="white"/>
<path d="M13.022 143.455C14.7159 143.455 16.0891 142.051 16.0891 140.318C16.0891 138.586 14.7159 137.182 13.022 137.182C11.328 137.182 9.95483 138.586 9.95483 140.318C9.95483 142.051 11.328 143.455 13.022 143.455Z" fill="#FE4400"/>
<path d="M13.3887 145.601H12.5229V151.799H13.3887V145.601Z" fill="white"/>
<path d="M88.9114 138.42C107.367 138.42 122.328 123.118 122.328 104.243C122.328 85.368 107.367 70.0667 88.9114 70.0667C70.4557 70.0667 55.4944 85.368 55.4944 104.243C55.4944 123.118 70.4557 138.42 88.9114 138.42Z" fill="#6263AB"/>
<path d="M67.8734 106.987C68.7033 105.97 69.7413 105.153 70.914 104.592C72.0867 104.031 73.3655 103.74 74.6601 103.74C75.9547 103.74 77.2335 104.031 78.4062 104.592C79.5789 105.153 80.6169 105.97 81.4468 106.987C82.8669 105.6 83.8485 103.81 84.2649 101.848C84.6814 99.8858 84.5137 97.8409 83.7835 95.977C83.0533 94.1131 81.7939 92.5156 80.1678 91.3904C78.5417 90.2652 76.6234 89.6638 74.6601 89.6638C72.6968 89.6638 70.7784 90.2652 69.1523 91.3904C67.5262 92.5156 66.2669 94.1131 65.5367 95.977C64.8064 97.8409 64.6387 99.8858 65.0552 101.848C65.4717 103.81 66.4533 105.6 67.8734 106.987V106.987Z" fill="white"/>
<path d="M94.4102 106.986C95.2402 105.97 96.2782 105.153 97.4508 104.592C98.6235 104.031 99.9023 103.74 101.197 103.74C102.492 103.74 103.77 104.031 104.943 104.592C106.116 105.153 107.154 105.97 107.984 106.986C109.404 105.6 110.385 103.81 110.802 101.848C111.218 99.8858 111.051 97.8409 110.32 95.977C109.59 94.1131 108.331 92.5156 106.705 91.3904C105.079 90.2652 103.16 89.6638 101.197 89.6638C99.2336 89.6638 97.3153 90.2652 95.6892 91.3904C94.0631 92.5156 92.8038 94.1131 92.0735 95.977C91.3433 97.8409 91.1756 99.8858 91.5921 101.848C92.0086 103.81 92.9901 105.6 94.4102 106.986Z" fill="white"/>
<path d="M71.3072 99.7507C73.1744 99.7507 74.6881 98.2026 74.6881 96.293C74.6881 94.3833 73.1744 92.8352 71.3072 92.8352C69.44 92.8352 67.9263 94.3833 67.9263 96.293C67.9263 98.2026 69.44 99.7507 71.3072 99.7507Z" fill="black"/>
<path d="M97.8433 99.7507C99.7105 99.7507 101.224 98.2026 101.224 96.293C101.224 94.3833 99.7105 92.8352 97.8433 92.8352C95.9761 92.8352 94.4624 94.3833 94.4624 96.293C94.4624 98.2026 95.9761 99.7507 97.8433 99.7507Z" fill="black"/>
<path d="M64.8313 116.808C67.0026 116.808 68.7627 115.008 68.7627 112.787C68.7627 110.567 67.0026 108.767 64.8313 108.767C62.6601 108.767 60.8999 110.567 60.8999 112.787C60.8999 115.008 62.6601 116.808 64.8313 116.808Z" fill="#FF6584"/>
<path d="M110.043 116.808C112.214 116.808 113.974 115.008 113.974 112.787C113.974 110.567 112.214 108.767 110.043 108.767C107.871 108.767 106.111 110.567 106.111 112.787C106.111 115.008 107.871 116.808 110.043 116.808Z" fill="#FF6584"/>
<path d="M87.437 104.745L84.4885 117.813L89.4027 112.787L87.437 104.745Z" fill="#FF6584"/>
<path d="M102.587 155.005L99.2398 152.132L99.3178 155.005H98.2781L98.1951 151.967L93.6753 155.005H91.7832L98.1613 150.718L97.9142 141.715L97.7297 134.915L98.7668 134.886L98.954 141.715L99.2008 150.71L104.204 155.005H102.587Z" fill="white"/>
<path d="M86.8607 155.005L83.5131 152.132L83.5911 155.005H82.5542L82.471 151.967L77.9512 155.005H76.0591L82.4346 150.718L82.1877 141.715L82.0032 134.915L83.0427 134.886L83.2299 141.715L83.4741 150.71L88.4774 155.005H86.8607Z" fill="white"/>
<path d="M89.4027 67.5535C88.4858 67.5535 87.6769 68.2819 87.1361 69.4008C86.6594 67.7183 85.658 66.5483 84.4884 66.5483C84.4089 66.5564 84.3301 66.5699 84.2524 66.5888C83.8028 64.7925 82.758 63.5327 81.5399 63.5327C79.9114 63.5327 78.5913 65.7829 78.5913 68.5587C78.5913 71.3344 79.9114 73.5846 81.5399 73.5846C81.6194 73.5765 81.6982 73.563 81.7759 73.5441C82.2255 75.3404 83.2703 76.6002 84.4884 76.6002C85.4054 76.6002 86.2142 75.8718 86.755 74.7529C87.2317 76.4353 88.2332 77.6054 89.4027 77.6054C91.0311 77.6054 92.3513 75.3552 92.3513 72.5794C92.3513 69.8037 91.0311 67.5535 89.4027 67.5535Z" fill="white"/>
<path d="M57.5452 117.195C56.2545 117.195 54.9764 116.935 53.784 116.429C52.5915 115.924 51.508 115.184 50.5953 114.25C49.6827 113.317 48.9587 112.209 48.4648 110.989C47.9709 109.77 47.7166 108.463 47.7166 107.143V102.117C47.7166 99.4508 48.7521 96.894 50.5953 95.0089C52.4386 93.1239 54.9385 92.0648 57.5452 92.0648V92.0648V117.195Z" fill="#FE4400"/>
<path d="M120.278 92.0647C121.568 92.0647 122.846 92.3247 124.039 92.8298C125.231 93.335 126.315 94.0754 127.227 95.0088C128.14 95.9422 128.864 97.0503 129.358 98.2699C129.852 99.4894 130.106 100.797 130.106 102.117V107.143C130.106 108.463 129.852 109.77 129.358 110.989C128.864 112.209 128.14 113.317 127.227 114.25C126.315 115.184 125.231 115.924 124.039 116.429C122.846 116.934 121.568 117.194 120.278 117.194V117.194V92.0647H120.278Z" fill="#FE4400"/>
<path d="M125.428 102.907H123.868C123.868 82.6802 107.779 66.2247 88.0018 66.2247C68.2249 66.2247 52.1351 82.6802 52.1351 102.907H50.5757C50.5757 81.8007 67.365 64.6299 88.0018 64.6299C108.639 64.6299 125.428 81.8007 125.428 102.907Z" fill="#FE4400"/>
<path d="M34.4864 72.1679L34.4867 72.1673L33.754 71.8553L30.6629 70.5188L29.5549 70.0398L29.4698 70.2593L27.9814 74.1028L32.1703 75.9161L32.1923 75.9364L31.91 76.6171C31.8714 76.6794 31.8384 76.7452 31.8115 76.8136C31.6138 77.3242 31.9872 77.8321 32.3403 77.9751C32.6933 78.1181 33.1398 77.8201 33.3376 77.3095C33.5326 76.8058 33.342 76.166 32.998 76.0114L32.9983 76.0108L32.2656 75.6988L29.7594 74.7024L31.1914 71.0046L30.9792 70.9186L29.5467 74.6178L29.2368 74.4946L30.6749 70.781L30.7128 70.7974L33.6587 72.0726L33.6807 72.0929L33.3984 72.7736C33.3598 72.8359 33.3268 72.9017 33.2999 72.9701C33.1022 73.4807 33.4756 73.9886 33.8287 74.1316C34.1817 74.2746 34.6282 73.9766 34.826 73.466C35.021 72.9623 34.8304 72.3225 34.4864 72.1679Z" fill="white"/>
<path d="M48.9846 81.6036C47.4641 80.7144 47.7683 78.7632 47.7683 78.7632C47.7301 77.4956 46.7061 77.675 46.7061 77.675L46.3334 77.762C46.1603 77.6799 45.9696 77.6438 45.7792 77.6572L45.2123 77.7548C46.5032 78.065 46.3972 79.1694 46.3972 79.1694L46.578 80.4608L43.1955 79.0652L43.5839 78.1287C43.6375 78.0422 43.6833 77.9509 43.7207 77.8559C43.9953 77.1466 43.4766 76.4412 42.9862 76.2426C42.4959 76.044 41.8757 76.4579 41.6011 77.1671C41.3302 77.8666 41.595 78.7553 42.0728 78.97L42.0724 78.9709L43.0899 79.4042L43.0975 79.3797L48.9846 81.6036ZM47.267 79.3346L47.3754 80.5706C46.9924 80.021 46.8125 79.3503 46.8677 78.6777C46.8587 78.4385 46.7798 78.2075 46.6411 78.0146C46.8543 78.1543 47.0255 78.3514 47.1359 78.5844C47.2464 78.8173 47.2917 79.0769 47.267 79.3346V79.3346Z" fill="white"/>
<path d="M23.1828 63.3234L23.1832 63.3226L22.1657 62.8892L17.913 61.1985L18.9863 60.2219C19.1963 59.9356 19.5064 59.7434 19.8517 59.6855C20.197 59.6277 20.5508 59.7086 20.8392 59.9114L20.5061 59.4051C20.5061 59.4051 19.8799 58.5573 19.0034 59.4543C19.0034 59.4543 17.9189 61.0895 16.2153 60.6727L22.0332 63.1911L22.0638 63.2194L21.6717 64.1648C21.618 64.2512 21.5722 64.3426 21.5349 64.4376C21.2603 65.1468 21.779 65.8522 22.2693 66.0509C22.7597 66.2495 23.3798 65.8356 23.6545 65.1264C23.9254 64.4269 23.6606 63.5382 23.1828 63.3234Z" fill="white"/>
<path d="M38.752 57.7897L38.3599 58.7351C38.3063 58.8216 38.2605 58.9129 38.2232 59.008C37.9485 59.7172 38.4672 60.4226 38.9576 60.6212C39.4479 60.8198 40.0681 60.4059 40.3427 59.6967C40.6136 58.9972 40.3489 58.1086 39.871 57.8938L39.8714 57.893L38.8539 57.4596L35.373 56.0757L37.3619 50.9399L37.0671 50.8205L35.0775 55.9582L34.6471 55.7871L36.6445 50.6293L36.6971 50.6521L40.7887 52.4232L40.8192 52.4515L40.4272 53.3969C40.3735 53.4834 40.3277 53.5747 40.2904 53.6697C40.0157 54.3789 40.5345 55.0844 41.0248 55.283C41.5151 55.4816 42.1353 55.0677 42.4099 54.3585C42.6808 53.659 42.4161 52.7703 41.9383 52.5556L41.9387 52.5547L40.9211 52.1214L36.7629 50.3236L36.7627 50.3235L36.6278 50.2652L35.0889 49.5999L32.9036 55.243L38.7214 57.7614L38.752 57.7897Z" fill="white"/>
<path d="M20.3149 28.8885L20.3156 28.8871L18.5639 28.141L11.2432 25.2305L13.0909 23.5493C13.0909 23.5493 14.3199 21.8052 16.2804 23.0149L15.7071 22.1433C15.7071 22.1433 14.6291 20.6838 13.1203 22.228C13.1203 22.228 11.2533 25.0429 8.3208 24.3254L18.3359 28.6606L18.3885 28.7093L17.7136 30.3368C17.6213 30.4856 17.5424 30.6429 17.4782 30.8065C17.0054 32.0273 17.8983 33.2417 18.7424 33.5836C19.5865 33.9255 20.6541 33.213 21.1269 31.9922C21.5932 30.788 21.1374 29.2582 20.3149 28.8885Z" fill="white"/>
<path d="M25.6904 53.3372C22.0547 51.2113 22.7822 46.5461 22.7822 46.5461C22.6908 43.5155 20.2425 43.9445 20.2425 43.9445L19.3514 44.1524C18.9375 43.9559 18.4817 43.8697 18.0265 43.9018L16.671 44.1351C19.7574 44.8768 19.5039 47.5174 19.5039 47.5174L19.9363 50.6049L11.849 47.2682L12.7775 45.0291C12.9059 44.8223 13.0153 44.6039 13.1046 44.3767C13.7612 42.6811 12.5211 40.9945 11.3487 40.5196C10.1763 40.0447 8.69357 41.0343 8.03693 42.7299C7.38924 44.4024 8.02221 46.5272 9.16468 47.0405L9.16372 47.0426L11.5966 48.0787L11.6147 48.0201L25.6904 53.3372ZM21.5835 47.9122L21.8437 50.8777C20.3168 48.8047 20.6289 46.3417 20.6289 46.3417C20.6073 45.7698 20.4187 45.2175 20.0872 44.7563C21.8413 45.8298 21.5835 47.9122 21.5835 47.9122H21.5835Z" fill="white"/>
</g>
<defs>
<clipPath id="clip0_1826_467427">
<rect width="178.47" height="158.894" fill="white" transform="translate(0 0.727295)"/>
</clipPath>
</defs>
</svg>
