<svg width="63" height="43" viewBox="0 0 63 43" fill="none" xmlns="http://www.w3.org/2000/svg">
<path d="M38.3157 11.5115H31.4389V8.25096H49.0459V11.5115H42.1691V29H38.3157V11.5115Z" fill="white"/>
<path d="M54.5681 35.4536C52.9675 35.4536 51.4162 35.2264 49.9144 34.7719C48.4323 34.3174 47.2565 33.7147 46.3871 32.9638L47.7209 29.97C48.5707 30.6418 49.6081 31.1951 50.8333 31.6299C52.0782 32.0449 53.3232 32.2524 54.5681 32.2524C56.1095 32.2524 57.2556 32.0053 58.0065 31.5113C58.7772 31.0173 59.1625 30.3652 59.1625 29.555C59.1625 28.9622 58.9452 28.478 58.5104 28.1026C58.0954 27.7073 57.5619 27.401 56.9098 27.1837C56.2577 26.9663 55.3684 26.7193 54.2421 26.4426C52.6612 26.0672 51.3767 25.6917 50.3887 25.3163C49.4204 24.9408 48.5805 24.3578 47.8691 23.5674C47.1775 22.7572 46.8317 21.6704 46.8317 20.3068C46.8317 19.1607 47.138 18.1233 47.7506 17.1945C48.3829 16.246 49.3216 15.495 50.5665 14.9417C51.8312 14.3884 53.3726 14.1118 55.1906 14.1118C56.4553 14.1118 57.7002 14.2699 58.9254 14.586C60.1506 14.9022 61.2078 15.3567 62.097 15.9495L60.8817 18.9433C59.9727 18.4098 59.0242 18.0047 58.0362 17.728C57.0481 17.4514 56.0897 17.3131 55.1609 17.3131C53.6393 17.3131 52.5031 17.5699 51.7522 18.0837C51.021 18.5975 50.6554 19.2793 50.6554 20.129C50.6554 20.7218 50.8629 21.206 51.2779 21.5814C51.7126 21.9569 52.2561 22.2533 52.9082 22.4707C53.5603 22.688 54.4495 22.9351 55.5759 23.2117C57.1173 23.5674 58.382 23.9429 59.37 24.3381C60.3581 24.7135 61.1979 25.2965 61.8896 26.0869C62.601 26.8774 62.9566 27.9445 62.9566 29.2882C62.9566 30.4344 62.6405 31.4718 62.0081 32.4006C61.3955 33.3293 60.4569 34.0704 59.1922 34.6237C57.9275 35.177 56.3861 35.4536 54.5681 35.4536Z" fill="white"/>
<path d="M17.1252 11.5152C24.5551 11.226 31.1058 21.5484 23.0861 28.0764C27.7085 20.6012 19.3258 9.96687 10.0016 15.9561C12.1625 13.0125 14.6524 11.6116 17.1252 11.5152ZM15.1288 14.2093C17.613 14.1469 20.2957 15.1734 22.5019 17.8221C14.9643 13.2337 4.35267 21.6788 10.41 30.9293C1.48849 24.492 7.67059 14.3794 15.1288 14.2093ZM24.867 15.5081C36.7435 24.0949 21.6852 39.1985 12.9112 28.5869C20.4602 33.1753 30.9017 24.7529 24.867 15.5081ZM12.2306 18.514C7.6082 25.9723 16.093 36.4081 25.4115 30.4188C16.7622 42.2045 1.53953 27.22 12.2306 18.514V18.514Z" stroke="white" stroke-width="1.04707" stroke-linecap="round" stroke-linejoin="round"/>
</svg>
